<svg width="885" height="379" viewBox="0 0 885 379" fill="none" xmlns="http://www.w3.org/2000/svg">
<path d="M727.904 244.496C738.346 232.26 747.216 219.411 753.814 205.077C758.927 193.969 759.447 183.117 754.282 171.514C737.559 133.946 721.402 96.1259 705.03 58.4013C704.567 57.3326 704.111 56.2578 703.716 55.1625C700.807 47.0895 703.45 42.7658 712.02 42.581C722.337 42.3586 732.676 42.2436 742.979 43.2477C748.302 43.7664 750.513 47.6303 752.306 51.9018C756.961 62.9878 780.625 123.266 785.696 135.392C789.575 124.74 829.014 36.033 825.453 45.4514C835.538 40.8285 845.885 43.591 856.023 43.2768C865.186 42.9928 869.178 48.8916 865.711 57.3724C853.046 88.3479 840.302 119.291 827.461 150.194C818.519 171.714 810.055 193.469 800.179 214.558C774.875 268.588 734.625 308.281 681.565 335.122C651.496 350.333 619.668 360.012 586.341 365.057C569.047 367.676 551.665 369.357 534.244 369.532C509.465 369.78 484.823 367.519 460.325 363.431C418.86 356.512 379.283 342.621 339.015 331.274C314.524 324.373 289.784 318.476 264.416 316.159C219.549 312.061 176.076 317.551 135.139 337.429C115.997 346.724 99.0514 359.424 82.8865 373.158C74.9475 379.902 68.3354 379.858 60.9485 372.501C57.2947 368.861 53.7557 365.075 50.477 361.097C44.6714 354.055 44.9822 348.205 51.4957 341.692C69.8353 323.355 91.0893 309.183 114.456 298.098C141.267 285.379 169.37 277.274 198.927 274.085C226.178 271.146 253.309 271.701 280.509 274.947C321.663 279.859 361.112 291.615 400.477 303.838C429.564 312.87 459.152 319.895 489.451 323.014C550.428 329.29 609.288 321.447 664.65 293.895C688.892 281.83 710.189 265.661 727.904 244.496Z" fill="#006644"/>
<path d="M753.814 205.077C747.216 219.411 738.346 232.26 727.904 244.495C710.189 265.661 688.892 281.83 664.65 293.895C609.288 321.447 550.428 329.29 489.451 323.014C459.152 319.895 429.564 312.87 400.477 303.838C361.112 291.615 321.663 279.859 280.509 274.947C253.309 271.701 226.178 271.146 198.927 274.085C169.37 277.274 141.267 285.379 114.456 298.098C91.0893 309.183 69.8353 323.355 51.4957 341.692C44.9822 348.205 44.6714 354.055 50.477 361.097C53.7557 365.075 57.2947 368.861 60.9485 372.501C68.3354 379.858 74.9475 379.902 82.8865 373.158C99.0514 359.424 115.997 346.724 135.139 337.429C176.076 317.551 219.549 312.061 264.416 316.159C289.784 318.476 314.524 324.373 339.015 331.274C379.283 342.621 418.86 356.512 460.325 363.431C484.823 367.519 509.465 369.78 534.244 369.532C551.665 369.357 569.047 367.676 586.341 365.057C619.668 360.012 651.496 350.333 681.565 335.122C734.625 308.281 774.875 268.588 800.179 214.558C810.055 193.469 818.519 171.714 827.461 150.194C840.302 119.291 853.046 88.3479 865.711 57.3724C869.178 48.8916 865.186 42.9928 856.023 43.2768C845.885 43.591 835.538 40.8285 825.453 45.4514C829.416 34.9711 780.135 145.989 785.853 135.766C760 192.5 758.927 193.969 753.814 205.077Z" fill="#EEAF00"/>
<path d="M785.5 135.5C797.5 234 771 281 821.5 166C825.454 155.505 847.793 97.6239 853.498 87.3859C856.582 91.317 859.589 95.3117 862.74 99.1874C866.065 103.276 870.449 104.302 875.311 102.756C879.877 101.304 881.155 97.6291 881.843 93.1236C883.211 84.1518 882.591 75.1341 883.026 66.1517C883.928 47.5002 884.271 28.8177 884.604 10.1438C884.704 4.54355 881.419 1.45062 875.932 0.280117C870.352 -0.910285 865.94 1.94914 861.301 4.05346C836.789 15.171 812.28 26.2933 787.812 37.5072C782.404 39.9857 779.804 45.4595 780.9 51.1242C782.081 57.2287 786.404 60.8958 792.797 61.2386C798.924 61.5671 805.054 61.8445 811.175 62.2699C816.909 62.6685 816.345 64.1647 814 69.5C805.215 89.4856 795.639 109.113 787.812 129.5C784.362 138.486 788.924 126.456 785.5 135.5Z" fill="#EEAF00"/>
<path d="M375.964 189.939C353.463 176.984 342.112 157.366 338.934 132.359C336.044 109.607 340.159 88.4712 353.72 69.8451C367.199 51.3309 385.404 40.4603 408.526 37.9557C428.407 35.8022 446.561 39.4421 462.839 52.5574C465.922 43.5673 472.764 42.5219 480.646 43C486.79 43.3728 492.976 43.0056 499.141 43.1072C505.297 43.2087 508.662 46.575 508.667 52.7952C508.7 96.4609 509.277 140.138 508.422 183.788C507.975 206.621 502.045 228.269 485.047 245.261C473.511 256.791 459.104 262.771 443.469 265.444C412.726 270.699 382.84 267.478 354.414 254.064C343.958 249.13 342.874 245.681 347.657 235.192C350.559 228.829 353.44 222.451 356.528 216.177C358.909 211.34 362.614 209.984 367.678 211.84C369.228 212.408 370.724 213.19 372.141 214.046C386.557 222.759 402.31 227.568 419.005 227.859C441.438 228.249 457.666 220.338 462.911 190.46C463.432 187.496 465.144 184.353 462.93 181.04C436.187 204.093 407.031 204.857 375.964 189.939ZM453.505 92.795C440.068 79.6662 420.177 77.0544 404.376 86.3441C389.519 95.0795 382.6 112.686 387.811 130.551C393.647 150.557 410.749 160.418 432.628 156.484C441.596 154.872 449.347 150.7 454.774 143.216C466.267 127.364 465.875 109.975 453.505 92.795Z" fill="#006644"/>
<path d="M690.732 126.429C690.455 147.072 692.074 167.231 690.626 187.353C689.03 209.518 682.865 229.971 665.669 245.408C651.749 257.905 635.159 264.627 616.625 266.834C593.177 269.626 570.566 266.478 548.808 257.415C544.216 255.502 539.786 253.103 535.524 250.526C529.83 247.084 528.802 242.836 531.846 236.978C535.223 230.478 538.677 224.017 542.107 217.543C547.207 207.919 549.396 207.386 558.663 213.528C567.897 219.647 577.649 224.727 588.685 226.487C605.605 229.187 621.753 227.95 634.163 214.193C642.332 205.136 646.113 194.226 646.216 182.014C644.296 181.704 643.597 182.799 642.761 183.525C630.011 194.587 615.13 199.8 598.331 199.765C562.364 199.69 532.892 175.435 526.121 140.014C521.071 113.6 523.916 88.362 540.781 66.5328C558.743 43.2838 582.945 34.0689 612.117 37.8052C624.124 39.3431 634.883 43.7012 643.901 51.3217C646.05 50.9966 646.131 49.3792 646.74 48.3129C648.744 44.8052 651.626 43.0408 655.702 43.0678C664.032 43.123 672.362 43.0082 680.69 43.1097C687.319 43.1904 690.668 46.6756 690.682 53.4636C690.731 77.6188 690.72 101.774 690.732 126.429ZM644.64 103.717C638.317 88.6984 626.76 80.684 610.746 79.9108C591.315 78.9726 576.21 91.6356 572.561 111.38C569.772 126.468 574.078 139.552 585.884 149.388C598.169 159.624 612.254 159.795 626.256 153.597C644.416 145.56 651.709 125.555 644.64 103.717Z" fill="#006644"/>
<path d="M321.646 86.4295C321.653 120.917 321.666 154.905 321.663 188.893C321.663 197.931 318.791 200.755 309.677 200.762C302.679 200.768 295.682 200.772 288.684 200.761C279.59 200.747 277.295 198.982 275.012 190.326C274.852 189.72 274.577 189.146 274.387 188.643C272.326 188.297 271.477 189.771 270.451 190.733C248.657 211.171 210.717 208.896 189.491 192.561C177.941 183.672 172.654 170.944 170.067 157C168.671 149.472 168.236 141.832 168.231 134.17C168.214 108.012 168.166 81.8554 168.143 55.6982C168.134 45.7509 171.197 42.5948 181.26 42.3937C188.588 42.2474 195.92 42.2443 203.251 42.2555C213.336 42.2709 216.431 45.3319 216.461 55.3729C216.538 81.863 216.583 108.353 216.612 134.843C216.617 139.257 217.629 143.401 219.551 147.345C227.21 163.068 244.127 164.026 257.861 157.318C267.215 152.75 272.852 144.919 273.013 134.334C273.387 109.853 273.287 85.3641 273.406 60.8785C273.421 57.8835 273.421 54.8712 273.731 51.8985C274.427 45.2192 276.984 42.4921 283.538 42.2945C292.859 42.0133 302.203 41.9728 311.522 42.2784C318.431 42.505 321.499 46.2786 321.583 53.9424C321.701 64.6037 321.634 75.267 321.646 86.4295Z" fill="#006644"/>
<path d="M47.6999 169.43C47.698 176.595 47.745 183.261 47.6799 189.926C47.6155 196.511 44.2452 200.439 37.7523 200.639C28.2631 200.931 18.7529 200.916 9.26238 200.65C3.21414 200.48 0.0218142 196.747 0.0186252 190.583C-0.0048578 145.09 -0.00639922 99.5981 0.0155048 54.1057C0.0189078 47.0394 2.95417 43.696 10.2549 43.3656C18.2365 43.0043 26.2578 43.0248 34.2418 43.3578C41.3726 43.6553 44.1855 46.4736 46.5299 54.6838C53.4998 46.4931 62.2434 41.515 72.4641 39.7106C96.0991 35.5382 118.044 38.4445 135.359 57.0541C143.436 65.7351 147.555 76.5485 148.617 88.2152C151.111 115.629 149.135 143.131 149.681 170.589C149.814 177.252 149.745 183.92 149.685 190.585C149.627 196.892 146.652 200.432 140.425 200.629C130.936 200.928 121.424 200.927 111.935 200.64C105.386 200.443 102.205 196.514 102.176 189.23C102.108 171.733 102.16 154.236 102.148 136.739C102.141 126.407 102.185 116.075 102.061 105.745C101.902 92.5331 93.7626 83.3699 80.5448 81.9448C75.8017 81.4334 70.9358 81.2391 66.1482 82.496C54.4082 85.5779 47.7543 93.8565 47.7207 105.94C47.6622 126.937 47.7014 147.933 47.6999 169.43Z" fill="#006644"/>
</svg>
